<mxfile host="app.diagrams.net" agent="Mozilla/5.0 (Windows NT 10.0; Win64; x64) AppleWebKit/537.36 (KHTML, like Gecko) Chrome/138.0.0.0 Safari/537.36" version="28.0.7">
  <diagram name="Page-1" id="gamRS6MLA4fs2B-uqD5Q">
    <mxGraphModel grid="1" page="1" gridSize="10" guides="1" tooltips="1" connect="1" arrows="1" fold="1" pageScale="1" pageWidth="850" pageHeight="1100" math="0" shadow="0">
      <root>
        <mxCell id="0" />
        <mxCell id="1" parent="0" />
        <mxCell id="qD9gXsYjsShy9WRek7qx-5" style="edgeStyle=orthogonalEdgeStyle;rounded=0;orthogonalLoop=1;jettySize=auto;html=1;exitX=0.5;exitY=1;exitDx=0;exitDy=0;entryX=0.5;entryY=0;entryDx=0;entryDy=0;" edge="1" parent="1" source="sVo8eWBov2D_V9g_eI1e-1" target="qD9gXsYjsShy9WRek7qx-1">
          <mxGeometry relative="1" as="geometry" />
        </mxCell>
        <mxCell id="sVo8eWBov2D_V9g_eI1e-1" value="Inicio" style="rounded=1;whiteSpace=wrap;html=1;" vertex="1" parent="1">
          <mxGeometry x="160" y="80" width="80" height="30" as="geometry" />
        </mxCell>
        <mxCell id="sVo8eWBov2D_V9g_eI1e-14" value="&lt;font style=&quot;font-size: 20px;&quot;&gt;&lt;b&gt;Cálculo del índice de masa corporal&lt;/b&gt;&lt;/font&gt;" style="text;html=1;align=center;verticalAlign=middle;whiteSpace=wrap;rounded=0;" vertex="1" parent="1">
          <mxGeometry x="40" y="20" width="660" height="30" as="geometry" />
        </mxCell>
        <mxCell id="I5g4T-FfKX0s-sWPSXJS-8" style="edgeStyle=orthogonalEdgeStyle;rounded=0;orthogonalLoop=1;jettySize=auto;html=1;exitX=0.5;exitY=1;exitDx=0;exitDy=0;entryX=0.5;entryY=0;entryDx=0;entryDy=0;" edge="1" parent="1" source="qD9gXsYjsShy9WRek7qx-1" target="c4Z_fxULF_qdtMcInaCq-2">
          <mxGeometry relative="1" as="geometry">
            <mxPoint x="199" y="202" as="targetPoint" />
          </mxGeometry>
        </mxCell>
        <mxCell id="qD9gXsYjsShy9WRek7qx-1" value="Leer número" style="rounded=0;whiteSpace=wrap;html=1;" vertex="1" parent="1">
          <mxGeometry x="159" y="147" width="80" height="40" as="geometry" />
        </mxCell>
        <mxCell id="fhB60b2QltupWCeUgBXA-5" value="Fin" style="rounded=1;whiteSpace=wrap;html=1;" vertex="1" parent="1">
          <mxGeometry x="159" y="554" width="80" height="30" as="geometry" />
        </mxCell>
        <mxCell id="eM27uRVBK2D_l_hHfrWk-7" style="edgeStyle=orthogonalEdgeStyle;rounded=0;orthogonalLoop=1;jettySize=auto;html=1;exitX=0.5;exitY=1;exitDx=0;exitDy=0;entryX=0.5;entryY=0;entryDx=0;entryDy=0;" edge="1" parent="1" source="c4Z_fxULF_qdtMcInaCq-3" target="fhB60b2QltupWCeUgBXA-5">
          <mxGeometry relative="1" as="geometry">
            <mxPoint x="629.5" y="600" as="sourcePoint" />
          </mxGeometry>
        </mxCell>
        <mxCell id="c4Z_fxULF_qdtMcInaCq-4" style="edgeStyle=orthogonalEdgeStyle;rounded=0;orthogonalLoop=1;jettySize=auto;html=1;exitX=0.5;exitY=1;exitDx=0;exitDy=0;entryX=0.5;entryY=0;entryDx=0;entryDy=0;" edge="1" parent="1" source="c4Z_fxULF_qdtMcInaCq-2" target="c4Z_fxULF_qdtMcInaCq-3">
          <mxGeometry relative="1" as="geometry" />
        </mxCell>
        <mxCell id="c4Z_fxULF_qdtMcInaCq-2" value="contador=1" style="rounded=0;whiteSpace=wrap;html=1;" vertex="1" parent="1">
          <mxGeometry x="159.5" y="240" width="80" height="40" as="geometry" />
        </mxCell>
        <mxCell id="c4Z_fxULF_qdtMcInaCq-12" style="edgeStyle=orthogonalEdgeStyle;rounded=0;orthogonalLoop=1;jettySize=auto;html=1;exitX=1;exitY=0.5;exitDx=0;exitDy=0;entryX=0;entryY=0.5;entryDx=0;entryDy=0;" edge="1" parent="1" source="c4Z_fxULF_qdtMcInaCq-3" target="c4Z_fxULF_qdtMcInaCq-7">
          <mxGeometry relative="1" as="geometry" />
        </mxCell>
        <mxCell id="c4Z_fxULF_qdtMcInaCq-3" value="¿contador&amp;lt;10?" style="rhombus;whiteSpace=wrap;html=1;" vertex="1" parent="1">
          <mxGeometry x="139.5" y="310" width="120" height="100" as="geometry" />
        </mxCell>
        <mxCell id="c4Z_fxULF_qdtMcInaCq-13" style="edgeStyle=orthogonalEdgeStyle;rounded=0;orthogonalLoop=1;jettySize=auto;html=1;exitX=0.5;exitY=1;exitDx=0;exitDy=0;" edge="1" parent="1" source="c4Z_fxULF_qdtMcInaCq-5">
          <mxGeometry relative="1" as="geometry">
            <mxPoint x="200" y="210" as="targetPoint" />
            <Array as="points">
              <mxPoint x="417" y="580" />
              <mxPoint x="580" y="580" />
              <mxPoint x="580" y="210" />
            </Array>
          </mxGeometry>
        </mxCell>
        <mxCell id="c4Z_fxULF_qdtMcInaCq-5" value="Incrementar contador en 1" style="rounded=0;whiteSpace=wrap;html=1;" vertex="1" parent="1">
          <mxGeometry x="316.75" y="506" width="200.5" height="40" as="geometry" />
        </mxCell>
        <mxCell id="c4Z_fxULF_qdtMcInaCq-11" style="edgeStyle=orthogonalEdgeStyle;rounded=0;orthogonalLoop=1;jettySize=auto;html=1;exitX=0.5;exitY=1;exitDx=0;exitDy=0;entryX=0.5;entryY=0;entryDx=0;entryDy=0;" edge="1" parent="1" source="c4Z_fxULF_qdtMcInaCq-6" target="c4Z_fxULF_qdtMcInaCq-5">
          <mxGeometry relative="1" as="geometry" />
        </mxCell>
        <mxCell id="c4Z_fxULF_qdtMcInaCq-6" value="Escribir: &amp;lt;número&amp;gt; x &amp;lt;contador&amp;gt; = &amp;lt;resultado&amp;gt;" style="rounded=0;whiteSpace=wrap;html=1;" vertex="1" parent="1">
          <mxGeometry x="277" y="420" width="280" height="40" as="geometry" />
        </mxCell>
        <mxCell id="c4Z_fxULF_qdtMcInaCq-9" style="edgeStyle=orthogonalEdgeStyle;rounded=0;orthogonalLoop=1;jettySize=auto;html=1;exitX=0.5;exitY=1;exitDx=0;exitDy=0;entryX=0.5;entryY=0;entryDx=0;entryDy=0;" edge="1" parent="1" source="c4Z_fxULF_qdtMcInaCq-7" target="c4Z_fxULF_qdtMcInaCq-6">
          <mxGeometry relative="1" as="geometry" />
        </mxCell>
        <mxCell id="c4Z_fxULF_qdtMcInaCq-7" value="resultado = número x contador" style="rounded=0;whiteSpace=wrap;html=1;" vertex="1" parent="1">
          <mxGeometry x="312" y="340" width="210" height="40" as="geometry" />
        </mxCell>
        <mxCell id="c4Z_fxULF_qdtMcInaCq-14" value="No" style="text;html=1;align=center;verticalAlign=middle;resizable=0;points=[];autosize=1;strokeColor=none;fillColor=none;" vertex="1" parent="1">
          <mxGeometry x="160" y="408" width="40" height="30" as="geometry" />
        </mxCell>
        <mxCell id="c4Z_fxULF_qdtMcInaCq-15" value="Si" style="text;html=1;align=center;verticalAlign=middle;resizable=0;points=[];autosize=1;strokeColor=none;fillColor=none;" vertex="1" parent="1">
          <mxGeometry x="247" y="330" width="30" height="30" as="geometry" />
        </mxCell>
      </root>
    </mxGraphModel>
  </diagram>
</mxfile>
